<svg width="84" height="92" viewBox="0 0 84 92" fill="none" xmlns="http://www.w3.org/2000/svg">
<circle cx="42" cy="46" r="42" fill="white"/>
<path d="M43.292 66.14C40.024 66.14 37.022 65.38 34.286 63.86C31.55 62.34 29.346 60.25 27.674 57.59C26.078 54.854 25.28 51.776 25.28 48.356C25.28 44.86 26.078 41.82 27.674 39.236C29.346 36.576 31.55 34.524 34.286 33.08C37.022 31.56 40.024 30.8 43.292 30.8C46.636 30.8 49.638 31.56 52.298 33.08C55.034 34.524 57.2 36.576 58.796 39.236C60.392 41.82 61.19 44.86 61.19 48.356C61.19 51.776 60.392 54.854 58.796 57.59C57.2 60.25 55.034 62.34 52.298 63.86C49.638 65.38 46.636 66.14 43.292 66.14ZM43.292 56.906C45.648 56.906 47.548 56.108 48.992 54.512C50.512 52.84 51.272 50.788 51.272 48.356C51.272 45.848 50.512 43.834 48.992 42.314C47.548 40.794 45.648 40.034 43.292 40.034C41.012 40.034 39.074 40.794 37.478 42.314C35.958 43.834 35.198 45.848 35.198 48.356C35.198 50.788 35.958 52.84 37.478 54.512C39.074 56.108 41.012 56.906 43.292 56.906Z" fill="black"/>
<line x1="29.5" y1="22.5" x2="29.5" y2="60.5" stroke="black" stroke-width="9" stroke-linecap="round"/>
<line x1="29.5261" y1="61.5262" x2="40.5259" y2="61.5902" stroke="black" stroke-width="9" stroke-linecap="round"/>
<line x1="25.0262" y1="35.5001" x2="45.0258" y2="35.6164" stroke="black" stroke-width="9"/>
<path d="M34.6787 8.27076C39.2028 5.63175 44.7972 5.63175 49.3213 8.27076L70.791 20.7952C75.2547 23.3991 78 28.1782 78 33.346V58.4456L77.9912 58.9387C77.8187 64.0263 74.9917 68.6693 70.5195 71.1506L59.584 77.218L49.4092 83.4573L48.9785 83.7112C44.6349 86.1736 39.3264 86.2317 34.9297 83.8655L34.4922 83.6213L13.209 71.2053C8.74532 68.6015 6.00025 63.8221 6 58.6546V33.346C6 28.3398 8.57585 23.6978 12.7949 21.0452L13.209 20.7952L34.6787 8.27076ZM44.2119 17.0296C42.8451 16.2323 41.1549 16.2323 39.7881 17.0296L18.3184 29.554C16.9699 30.3407 16.1396 31.7847 16.1396 33.346V58.6546C16.1399 60.2157 16.9699 61.6599 18.3184 62.4465L39.6016 74.8626C40.9981 75.677 42.7301 75.6576 44.1084 74.8128L54.2832 68.5735L54.4717 68.4583L54.665 68.3508L65.5996 62.2844C66.9942 61.5107 67.86 60.0404 67.8604 58.4456V33.346C67.8604 31.7847 67.0301 30.3407 65.6816 29.554L44.2119 17.0296Z" fill="black"/>
</svg>
